<svg width="54" height="54" viewBox="0 0 54 54" fill="none" xmlns="http://www.w3.org/2000/svg">
<rect width="54" height="54" rx="27" fill="#D4E64E"/>
<path d="M28.7299 18.5106L30.4899 22.0306C30.7299 22.5206 31.3699 22.9906 31.9099 23.0806L35.0999 23.6106C37.1399 23.9506 37.6199 25.4306 36.1499 26.8906L33.6699 29.3706C33.2499 29.7906 33.0199 30.6006 33.1499 31.1806L33.8599 34.2506C34.4199 36.6806 33.1299 37.6206 30.9799 36.3506L27.9899 34.5806C27.4499 34.2606 26.5599 34.2606 26.0099 34.5806L23.0199 36.3506C20.8799 37.6206 19.5799 36.6706 20.1399 34.2506L20.8499 31.1806C20.9799 30.6006 20.7499 29.7906 20.3299 29.3706L17.8499 26.8906C16.3899 25.4306 16.8599 23.9506 18.8999 23.6106L22.0899 23.0806C22.6199 22.9906 23.2599 22.5206 23.4999 22.0306L25.2599 18.5106C26.2199 16.6006 27.7799 16.6006 28.7299 18.5106Z" fill="#2C2B2B" stroke="#2C2B2B" stroke-width="1.5" stroke-linecap="round" stroke-linejoin="round"/>
</svg>
