<svg width="147" height="35" viewBox="0 0 147 35" fill="none" xmlns="http://www.w3.org/2000/svg">
<rect width="147" height="35" rx="17.5" fill="#D1E34C"/>
<path d="M21.1533 11.8398L22.3266 14.1864C22.4866 14.5131 22.9133 14.8264 23.2733 14.8864L25.3999 15.2398C26.7599 15.4664 27.0799 16.4531 26.0999 17.4264L24.4466 19.0798C24.1666 19.3598 24.0133 19.8998 24.0999 20.2864L24.5733 22.3331C24.9466 23.9531 24.0866 24.5798 22.6533 23.7331L20.6599 22.5531C20.2999 22.3398 19.7066 22.3398 19.3399 22.5531L17.3466 23.7331C15.9199 24.5798 15.0533 23.9464 15.4266 22.3331L15.8999 20.2864C15.9866 19.8998 15.8333 19.3598 15.5533 19.0798L13.8999 17.4264C12.9266 16.4531 13.2399 15.4664 14.5999 15.2398L16.7266 14.8864C17.0799 14.8264 17.5066 14.5131 17.6666 14.1864L18.8399 11.8398C19.4799 10.5664 20.5199 10.5664 21.1533 11.8398Z" stroke="#2C2B2B" stroke-width="1.5" stroke-linecap="round" stroke-linejoin="round"/>
<path d="M40.24 12.608V13.392C40.24 13.552 40.144 13.648 39.984 13.648H35.04L34.72 17.152H34.832C35.504 16.768 36.208 16.576 36.992 16.576C39.312 16.576 40.72 18.24 40.72 20.4C40.72 22.464 39.408 24.16 36.832 24.16C34.512 24.16 33.04 22.784 32.768 21.28C32.736 21.104 32.832 21.008 33.008 21.008H33.92C34.064 21.008 34.16 21.088 34.192 21.232C34.48 22.272 35.392 22.912 36.784 22.912C38.416 22.912 39.36 22.032 39.36 20.4C39.36 18.8 38.464 17.824 36.816 17.824C35.952 17.824 35.264 18.096 34.72 18.48C34.608 18.56 34.528 18.592 34.4 18.576L33.568 18.544C33.408 18.528 33.328 18.432 33.344 18.272L33.872 12.592C33.888 12.432 33.968 12.352 34.128 12.352H39.984C40.144 12.352 40.24 12.448 40.24 12.608ZM44.1891 22.704H49.4531C49.6131 22.704 49.7091 22.8 49.7091 22.96V23.744C49.7091 23.904 49.6131 24 49.4531 24H42.4291C42.2691 24 42.1731 23.904 42.1731 23.744V23.104C42.1731 22.976 42.1891 22.848 42.3331 22.688L45.9171 18.864C47.2131 17.488 48.0131 16.432 48.0131 15.36C48.0131 14.224 47.2131 13.408 45.8531 13.408C44.7171 13.408 43.8211 14 43.4051 15.088C43.3571 15.232 43.2771 15.296 43.1171 15.296H42.3011C42.1251 15.296 42.0291 15.184 42.0931 15.008C42.5251 13.504 43.8051 12.16 45.9331 12.16C48.1411 12.16 49.3411 13.632 49.3411 15.328C49.3411 16.768 48.3331 18.032 46.8771 19.664L44.1891 22.64V22.704ZM63.3991 17.84C64.5351 18.384 65.1431 19.376 65.1431 20.592C65.1431 22.512 63.7031 24 61.4631 24H56.5511C56.3911 24 56.2951 23.904 56.2951 23.744L56.3591 12.624C56.3591 12.464 56.4551 12.368 56.6151 12.368H60.9831C63.1431 12.368 64.4871 13.664 64.4871 15.424C64.4871 16.384 64.1031 17.248 63.3991 17.84ZM57.7511 13.616L57.7671 17.376H61.0471C62.3271 17.376 63.0791 16.672 63.0791 15.52C63.0791 14.368 62.2311 13.616 60.8231 13.616H57.7511ZM57.7991 22.752H61.3671C62.8871 22.752 63.7351 21.952 63.7351 20.72C63.7351 19.472 62.8071 18.64 61.1751 18.64H57.7831L57.7991 22.752ZM70.0215 15.312C72.2935 15.312 73.9575 17.056 73.9575 19.648C73.9575 22.288 72.2295 24.208 69.8935 24.208C67.6215 24.208 65.9415 22.368 65.9415 19.792C65.9415 17.136 67.6695 15.312 70.0215 15.312ZM69.8775 16.544C68.3895 16.544 67.3335 17.744 67.3335 19.664C67.3335 21.648 68.5175 22.944 70.0215 22.944C71.5095 22.944 72.5655 21.696 72.5655 19.808C72.5655 17.792 71.3975 16.544 69.8775 16.544ZM78.819 15.312C81.091 15.312 82.755 17.056 82.755 19.648C82.755 22.288 81.027 24.208 78.691 24.208C76.419 24.208 74.739 22.368 74.739 19.792C74.739 17.136 76.467 15.312 78.819 15.312ZM78.675 16.544C77.187 16.544 76.131 17.744 76.131 19.664C76.131 21.648 77.315 22.944 78.819 22.944C80.307 22.944 81.363 21.696 81.363 19.808C81.363 17.792 80.195 16.544 78.675 16.544ZM86.5605 19.808L85.4725 20.832L85.4885 23.744C85.4885 23.904 85.3925 24 85.2325 24H84.2725C84.1125 24 84.0165 23.904 84.0165 23.744L84.0805 12.32C84.0805 12.16 84.1765 12.064 84.3365 12.064H85.1845C85.3445 12.064 85.4405 12.16 85.4405 12.32L85.4725 19.328L89.3285 15.632C89.4245 15.536 89.5045 15.504 89.6325 15.504H90.6245C90.8645 15.504 90.9285 15.664 90.7525 15.824L87.4405 18.976L90.9445 23.68C91.0725 23.856 91.0085 24 90.8005 24H89.7445C89.6165 24 89.5205 23.952 89.4405 23.84L86.5605 19.808ZM101.415 15.312C102.999 15.312 103.975 16.384 103.975 18.4L104.007 23.744C104.007 23.904 103.911 24 103.751 24H102.791C102.631 24 102.535 23.904 102.535 23.744L102.567 18.752C102.583 17.312 102.007 16.656 101.015 16.656C99.911 16.656 99.031 17.488 98.871 19.248L98.887 23.744C98.887 23.904 98.791 24 98.631 24H97.687C97.527 24 97.431 23.904 97.431 23.744L97.447 18.752C97.463 17.312 96.887 16.656 95.895 16.656C94.839 16.656 93.879 17.392 93.703 19.232L93.735 23.744C93.735 23.904 93.639 24 93.479 24H92.519C92.359 24 92.263 23.904 92.263 23.744L92.311 15.76C92.311 15.6 92.407 15.504 92.567 15.504H93.431C93.591 15.504 93.687 15.6 93.687 15.76V16.768H93.767C94.407 15.936 95.271 15.312 96.359 15.312C97.415 15.312 98.215 15.808 98.583 16.912H98.695C99.383 15.936 100.231 15.312 101.415 15.312ZM108.971 15.312C110.971 15.312 112.171 16.4 112.171 18.208L112.219 23.744C112.219 23.904 112.123 24 111.963 24H111.051C110.891 24 110.795 23.904 110.795 23.744L110.811 22.656H110.699C110.123 23.536 109.083 24.144 107.755 24.144C106.235 24.144 105.163 23.328 105.163 21.792C105.163 20.048 106.491 19.248 109.627 18.944C110.427 18.864 110.811 18.624 110.811 18C110.811 17.136 110.123 16.512 108.875 16.512C107.867 16.512 107.195 16.96 106.939 17.712C106.891 17.856 106.795 17.92 106.651 17.92H105.819C105.643 17.92 105.547 17.824 105.579 17.68C105.947 16.256 107.115 15.312 108.971 15.312ZM110.795 19.76L110.731 19.728C110.459 19.856 110.059 19.968 109.499 20.016C107.531 20.24 106.539 20.704 106.539 21.696C106.539 22.496 107.115 22.928 108.059 22.928C109.643 22.928 110.715 21.808 110.811 20.88L110.795 19.76ZM118.26 15.568V16.544C118.26 16.704 118.164 16.8 118.004 16.8C116.612 16.848 115.54 17.36 115.412 19.328L115.428 23.744C115.428 23.904 115.332 24 115.172 24H114.212C114.052 24 113.956 23.904 113.956 23.744L114.02 15.76C114.02 15.6 114.116 15.504 114.276 15.504H115.124C115.284 15.504 115.38 15.6 115.38 15.76L115.396 16.832L115.508 16.848C116.084 16 116.964 15.408 118.004 15.328C118.164 15.312 118.26 15.408 118.26 15.568ZM121.719 19.808L120.631 20.832L120.647 23.744C120.647 23.904 120.551 24 120.391 24H119.431C119.271 24 119.175 23.904 119.175 23.744L119.239 12.32C119.239 12.16 119.335 12.064 119.495 12.064H120.343C120.503 12.064 120.599 12.16 120.599 12.32L120.631 19.328L124.487 15.632C124.583 15.536 124.663 15.504 124.791 15.504H125.783C126.023 15.504 126.087 15.664 125.911 15.824L122.599 18.976L126.103 23.68C126.231 23.856 126.167 24 125.959 24H124.903C124.775 24 124.679 23.952 124.599 23.84L121.719 19.808ZM130.574 15.312C132.494 15.312 133.518 16.416 133.838 17.424C133.902 17.6 133.806 17.712 133.63 17.712H132.798C132.654 17.712 132.558 17.664 132.478 17.536C132.078 16.912 131.47 16.544 130.494 16.544C129.502 16.544 128.83 17.008 128.83 17.696C128.83 18.352 129.47 18.624 130.686 18.976L131.342 19.168C133.262 19.728 134.03 20.48 134.03 21.648C134.03 23.216 132.75 24.208 130.766 24.208C128.798 24.208 127.63 23.2 127.182 21.888C127.118 21.712 127.198 21.6 127.39 21.6H128.334C128.478 21.6 128.558 21.664 128.638 21.792C129.054 22.608 129.822 22.96 130.846 22.96C131.886 22.96 132.606 22.608 132.606 21.776C132.606 21.088 132.03 20.704 130.67 20.304L130.03 20.112C128.51 19.68 127.454 19.088 127.454 17.792C127.454 16.32 128.798 15.312 130.574 15.312Z" fill="#2C2B2B"/>
</svg>
