<svg width="54" height="54" viewBox="0 0 54 54" fill="none" xmlns="http://www.w3.org/2000/svg">
<path d="M28.73 18.5106L30.49 22.0306C30.73 22.5206 31.37 22.9906 31.91 23.0806L35.1 23.6106C37.14 23.9506 37.62 25.4306 36.15 26.8906L33.67 29.3706C33.25 29.7906 33.02 30.6006 33.15 31.1806L33.86 34.2506C34.42 36.6806 33.13 37.6206 30.98 36.3506L27.99 34.5806C27.45 34.2606 26.56 34.2606 26.01 34.5806L23.02 36.3506C20.88 37.6206 19.58 36.6706 20.14 34.2506L20.85 31.1806C20.98 30.6006 20.75 29.7906 20.33 29.3706L17.85 26.8906C16.39 25.4306 16.86 23.9506 18.9 23.6106L22.09 23.0806C22.62 22.9906 23.26 22.5206 23.5 22.0306L25.26 18.5106C26.22 16.6006 27.78 16.6006 28.73 18.5106Z" fill="#2C2B2B" stroke="#2C2B2B" stroke-width="1.5" stroke-linecap="round" stroke-linejoin="round"/>
</svg>
