<svg width="84" height="35" viewBox="0 0 84 35" fill="none" xmlns="http://www.w3.org/2000/svg">
<rect width="84" height="35" rx="17.5" fill="#D1E34C"/>
<path d="M18.7 11.1862L14.6867 13.8062C13.4 14.6462 13.4 16.5262 14.6867 17.3662L18.7 19.9862C19.42 20.4595 20.6067 20.4595 21.3267 19.9862L25.32 17.3662C26.6 16.5262 26.6 14.6529 25.32 13.8129L21.3267 11.1929C20.6067 10.7129 19.42 10.7129 18.7 11.1862Z" stroke="#3A3A3A" stroke-width="1.5" stroke-linecap="round" stroke-linejoin="round"/>
<path d="M15.7534 18.2207L15.7467 21.3474C15.7467 22.194 16.4 23.1007 17.2 23.3674L19.3267 24.074C19.6934 24.194 20.3 24.194 20.6734 24.074L22.8 23.3674C23.6 23.1007 24.2534 22.194 24.2534 21.3474V18.254" stroke="#3A3A3A" stroke-width="1.5" stroke-linecap="round" stroke-linejoin="round"/>
<path d="M26.2667 19.5V15.5" stroke="#3A3A3A" stroke-width="1.5" stroke-linecap="round" stroke-linejoin="round"/>
<path d="M38.464 17.808C39.984 18.288 40.688 19.328 40.688 20.672C40.688 22.592 39.36 24.16 36.816 24.16C34.48 24.16 33.04 22.784 32.768 21.28C32.736 21.104 32.832 21.008 33.008 21.008H33.92C34.08 21.008 34.16 21.088 34.208 21.232C34.48 22.32 35.472 22.912 36.752 22.912C38.352 22.912 39.328 22.032 39.328 20.608C39.328 19.248 38.368 18.464 36.144 18.464H35.648C35.488 18.464 35.392 18.368 35.392 18.208V17.536C35.392 17.376 35.488 17.28 35.648 17.28H36.144C38.176 17.28 39.008 16.496 39.008 15.36C39.008 14.224 38.176 13.408 36.816 13.408C35.648 13.408 34.752 14 34.352 15.088C34.304 15.232 34.224 15.296 34.064 15.296H33.248C33.072 15.296 32.976 15.184 33.024 15.008C33.456 13.536 34.72 12.16 36.88 12.16C39.104 12.16 40.336 13.616 40.336 15.232C40.336 16.352 39.744 17.328 38.464 17.808ZM44.1579 22.704H49.4219C49.5819 22.704 49.6779 22.8 49.6779 22.96V23.744C49.6779 23.904 49.5819 24 49.4219 24H42.3979C42.2379 24 42.1419 23.904 42.1419 23.744V23.104C42.1419 22.976 42.1579 22.848 42.3019 22.688L45.8859 18.864C47.1819 17.488 47.9819 16.432 47.9819 15.36C47.9819 14.224 47.1819 13.408 45.8219 13.408C44.6859 13.408 43.7899 14 43.3739 15.088C43.3259 15.232 43.2459 15.296 43.0859 15.296H42.2699C42.0939 15.296 41.9979 15.184 42.0619 15.008C42.4939 13.504 43.7739 12.16 45.9019 12.16C48.1099 12.16 49.3099 13.632 49.3099 15.328C49.3099 16.768 48.3019 18.032 46.8459 19.664L44.1579 22.64V22.704ZM64.0874 18C64.0874 20.032 63.3194 21.76 62.0874 22.88L62.9354 23.888C63.0314 24.016 63.0314 24.144 62.9034 24.24L62.3434 24.704C62.2154 24.8 62.0874 24.8 61.9914 24.672L61.0794 23.584C60.3274 23.984 59.4794 24.208 58.5514 24.208C55.4474 24.208 53.1754 21.712 53.1754 18.192C53.1754 14.64 55.5434 12.176 58.7274 12.176C61.8314 12.176 64.0874 14.512 64.0874 18ZM58.6474 22.944C59.2234 22.944 59.7674 22.832 60.2474 22.608L59.4154 21.616C59.3194 21.488 59.3194 21.36 59.4474 21.264L60.0074 20.784C60.1354 20.688 60.2634 20.688 60.3594 20.816L61.2874 21.92C62.1514 21.088 62.6954 19.776 62.6954 18.128C62.6954 15.184 60.9674 13.424 58.6314 13.424C56.3114 13.424 54.5834 15.136 54.5834 18.096C54.5834 21.056 56.2954 22.944 58.6474 22.944ZM68.35 15.312C70.27 15.312 71.294 16.416 71.614 17.424C71.678 17.6 71.582 17.712 71.406 17.712H70.574C70.43 17.712 70.334 17.664 70.254 17.536C69.854 16.912 69.246 16.544 68.27 16.544C67.278 16.544 66.606 17.008 66.606 17.696C66.606 18.352 67.246 18.624 68.462 18.976L69.118 19.168C71.038 19.728 71.806 20.48 71.806 21.648C71.806 23.216 70.526 24.208 68.542 24.208C66.574 24.208 65.406 23.2 64.958 21.888C64.894 21.712 64.974 21.6 65.166 21.6H66.11C66.254 21.6 66.334 21.664 66.414 21.792C66.83 22.608 67.598 22.96 68.622 22.96C69.662 22.96 70.382 22.608 70.382 21.776C70.382 21.088 69.806 20.704 68.446 20.304L67.806 20.112C66.286 19.68 65.23 19.088 65.23 17.792C65.23 16.32 66.574 15.312 68.35 15.312Z" fill="#2C2B2B"/>
</svg>
