<svg width="24" height="24" viewBox="0 0 24 24" fill="none" xmlns="http://www.w3.org/2000/svg">
<path fill-rule="evenodd" clip-rule="evenodd" d="M3.63 7.04016L9.02 2.84016C10.37 1.79016 12.62 1.74016 14.02 2.72016L20.2 7.05016C21.19 7.74016 22 9.29016 22 10.5002V17.7802C22 20.0902 20.11 21.9902 17.79 21.9902H6.21C3.89 21.9902 2 20.0902 2 17.7702V10.3602C2 9.23016 2.73 7.74016 3.63 7.04016ZM12.75 14.9902C12.75 14.576 12.4142 14.2402 12 14.2402C11.5858 14.2402 11.25 14.576 11.25 14.9902V17.9902C11.25 18.4044 11.5858 18.7402 12 18.7402C12.4142 18.7402 12.75 18.4044 12.75 17.9902V14.9902Z" fill="white"/>
</svg>
