<svg width="102" height="35" viewBox="0 0 102 35" fill="none" xmlns="http://www.w3.org/2000/svg">
<rect width="102" height="35" rx="17.5" fill="#D1E34C"/>
<path d="M20.1002 20.5V21.9" stroke="#2C2B2B" stroke-width="1.5" stroke-linecap="round" stroke-linejoin="round"/>
<path d="M16.767 24.166H23.4336V23.4993C23.4336 22.766 22.8336 22.166 22.1003 22.166H18.1003C17.367 22.166 16.767 22.766 16.767 23.4993V24.166V24.166Z" stroke="#2C2B2B" stroke-width="1.5" stroke-miterlimit="10"/>
<path d="M16.1002 24.166H24.1002" stroke="#2C2B2B" stroke-width="1.5" stroke-linecap="round" stroke-linejoin="round"/>
<path d="M20 19.4173C17.8343 19.4173 16.0834 17.6664 16.0834 15.5007V13.5007C16.0834 12.4415 16.9409 11.584 18 11.584H22C23.0592 11.584 23.9167 12.4415 23.9167 13.5007V15.5007C23.9167 17.6664 22.1658 19.4173 20 19.4173Z" stroke="#2C2B2B" stroke-width="1.5" stroke-linecap="round" stroke-linejoin="round"/>
<path d="M15.3349 17.7316C15.6287 17.7979 15.9337 17.6819 16.1093 17.4372C16.2849 17.1924 16.297 16.8663 16.14 16.6092C15.9866 16.3578 15.9117 16.1051 15.9117 15.8493V14.6164C15.9117 14.5365 15.932 14.4634 15.9749 14.3938C16.1177 14.1624 16.124 13.8719 15.9915 13.6345C15.859 13.3971 15.6085 13.25 15.3366 13.25H14.9576C14.4179 13.25 13.8971 13.3984 13.4906 13.6849C13.0826 13.9724 12.7499 14.4367 12.7499 15.0274C12.7499 15.935 13.3046 16.6216 13.9121 17.0973C13.922 17.1051 13.9321 17.1126 13.9424 17.1199C14.3245 17.3891 14.7998 17.6109 15.3349 17.7316Z" stroke="#2C2B2B" stroke-width="1.5" stroke-linecap="round" stroke-linejoin="round"/>
<path d="M23.8597 16.6092C23.7028 16.8663 23.7149 17.1924 23.8905 17.4372C24.066 17.6819 24.371 17.7979 24.6649 17.7316C25.2 17.6109 25.6753 17.3891 26.0573 17.1199C26.0676 17.1126 26.0777 17.1051 26.0877 17.0973C26.6951 16.6216 27.2499 15.935 27.2499 15.0274C27.2499 14.4367 26.9171 13.9724 26.5092 13.6849C26.1027 13.3984 25.5819 13.25 25.0422 13.25H24.6631C24.3913 13.25 24.1407 13.3971 24.0082 13.6345C23.8757 13.8719 23.8821 14.1624 24.0248 14.3938C24.0678 14.4634 24.0881 14.5365 24.0881 14.6164V15.8493C24.0881 16.1051 24.0132 16.3578 23.8597 16.6092Z" stroke="#2C2B2B" stroke-width="1.5" stroke-linecap="round" stroke-linejoin="round"/>
<path d="M34.672 22.72H40.56C40.72 22.72 40.816 22.816 40.816 22.976V23.744C40.816 23.904 40.72 24 40.56 24H33.408C33.248 24 33.152 23.904 33.152 23.744L33.216 12.624C33.216 12.464 33.312 12.368 33.472 12.368H34.352C34.512 12.368 34.608 12.464 34.608 12.624L34.672 22.72ZM45.3304 15.328C47.7944 15.328 49.0424 17.264 48.9624 19.696C48.9464 19.872 48.8664 19.952 48.6904 19.952H42.7064C42.7224 21.824 43.7464 22.96 45.3464 22.96C46.2904 22.96 46.9304 22.592 47.3944 21.824C47.4584 21.696 47.5544 21.648 47.6984 21.648H48.5144C48.7064 21.648 48.7864 21.776 48.7224 21.952C48.0824 23.408 46.8184 24.208 45.2344 24.208C42.9144 24.208 41.2984 22.432 41.2984 19.808C41.2984 17.136 42.9464 15.328 45.3304 15.328ZM45.2184 16.56C43.7944 16.56 43.0104 17.568 42.7864 18.848H47.5384C47.4904 17.6 46.6744 16.56 45.2184 16.56ZM56.9521 15.792L54.2001 23.792C54.1521 23.936 54.0721 24 53.9121 24H52.5041C52.3441 24 52.2641 23.936 52.2161 23.792L49.4801 15.792C49.4161 15.616 49.5121 15.504 49.6881 15.504H50.5201C50.6801 15.504 50.7601 15.568 50.8081 15.712L53.1281 22.48H53.2881L55.6241 15.712C55.6721 15.568 55.7521 15.504 55.9121 15.504H56.7441C56.9201 15.504 57.0161 15.616 56.9521 15.792ZM61.4879 15.328C63.9519 15.328 65.1999 17.264 65.1199 19.696C65.1039 19.872 65.0239 19.952 64.8479 19.952H58.8639C58.8799 21.824 59.9039 22.96 61.5039 22.96C62.4479 22.96 63.0879 22.592 63.5519 21.824C63.6159 21.696 63.7119 21.648 63.8559 21.648H64.6719C64.8639 21.648 64.9439 21.776 64.8799 21.952C64.2399 23.408 62.9759 24.208 61.3919 24.208C59.0719 24.208 57.4559 22.432 57.4559 19.808C57.4559 17.136 59.1039 15.328 61.4879 15.328ZM61.3759 16.56C59.9519 16.56 59.1679 17.568 58.9439 18.848H63.6959C63.6479 17.6 62.8319 16.56 61.3759 16.56ZM68.1656 12.32L68.2296 23.744C68.2296 23.904 68.1336 24 67.9736 24H67.0136C66.8536 24 66.7576 23.904 66.7576 23.744L66.8056 12.32C66.8056 12.16 66.9016 12.064 67.0616 12.064H67.9096C68.0696 12.064 68.1656 12.16 68.1656 12.32ZM77.8166 24H76.8086C76.6486 24 76.5526 23.904 76.5526 23.744L76.6166 13.504H76.5046L73.5766 16.032C73.4486 16.128 73.3206 16.128 73.2086 16L72.7126 15.44C72.6006 15.312 72.6006 15.184 72.7286 15.088L75.8326 12.464C75.9446 12.384 76.0246 12.352 76.1526 12.352H77.7526C77.9126 12.352 78.0086 12.448 78.0086 12.608L78.0726 23.744C78.0726 23.904 77.9766 24 77.8166 24ZM82.7554 22.704H88.0194C88.1794 22.704 88.2754 22.8 88.2754 22.96V23.744C88.2754 23.904 88.1794 24 88.0194 24H80.9954C80.8354 24 80.7394 23.904 80.7394 23.744V23.104C80.7394 22.976 80.7554 22.848 80.8994 22.688L84.4834 18.864C85.7794 17.488 86.5794 16.432 86.5794 15.36C86.5794 14.224 85.7794 13.408 84.4194 13.408C83.2834 13.408 82.3874 14 81.9714 15.088C81.9234 15.232 81.8434 15.296 81.6834 15.296H80.8674C80.6914 15.296 80.5954 15.184 80.6594 15.008C81.0914 13.504 82.3714 12.16 84.4994 12.16C86.7074 12.16 87.9074 13.632 87.9074 15.328C87.9074 16.768 86.8994 18.032 85.4434 19.664L82.7554 22.64V22.704Z" fill="#2C2B2B"/>
</svg>
