<svg width="76" height="35" viewBox="0 0 76 35" fill="none" xmlns="http://www.w3.org/2000/svg">
<rect width="76" height="35" rx="17.5" fill="#D1E34C"/>
<path d="M14.4133 15.1607C15.7266 9.38732 24.28 9.39399 25.5866 15.1673C26.3533 18.554 24.2466 21.4207 22.4 23.194C21.06 24.4873 18.94 24.4873 17.5933 23.194C15.7533 21.4207 13.6466 18.5473 14.4133 15.1607Z" stroke="#3A3A3A" stroke-width="1.5"/>
<path d="M20 18.453C21.1488 18.453 22.08 17.5217 22.08 16.373C22.08 15.2242 21.1488 14.293 20 14.293C18.8513 14.293 17.92 15.2242 17.92 16.373C17.92 17.5217 18.8513 18.453 20 18.453Z" stroke="#3A3A3A" stroke-width="1.5"/>
<path d="M42.336 12.624L42.384 23.744C42.384 23.904 42.288 24 42.128 24H40.784C40.64 24 40.544 23.952 40.48 23.824L34.592 13.968L34.64 23.744C34.64 23.904 34.544 24 34.384 24H33.408C33.248 24 33.152 23.904 33.152 23.744L33.216 12.624C33.216 12.464 33.312 12.368 33.472 12.368H34.864C35.008 12.368 35.104 12.416 35.168 12.544L40.912 22.112L40.96 12.624C40.96 12.464 41.056 12.368 41.216 12.368H42.08C42.24 12.368 42.336 12.464 42.336 12.624ZM48.4113 19.104L48.4432 23.744C48.4432 23.904 48.3472 24 48.1873 24H47.2112C47.0512 24 46.9552 23.904 46.9552 23.744L46.9872 19.104L43.2752 12.672C43.1792 12.496 43.2432 12.368 43.4512 12.368H44.4432C44.5872 12.368 44.6832 12.416 44.7472 12.544L47.6592 17.6H47.7552L50.6832 12.544C50.7473 12.416 50.8432 12.368 50.9873 12.368H51.8993C52.1073 12.368 52.1713 12.496 52.0752 12.672L48.4113 19.104ZM58.0217 12.176C60.2137 12.176 61.9897 13.36 62.7577 15.376C62.8217 15.552 62.7257 15.664 62.5497 15.664L61.6858 15.68C61.5417 15.68 61.4458 15.616 61.3818 15.488C60.6458 14.176 59.4297 13.424 57.9417 13.424C55.6537 13.424 53.9577 15.136 53.9577 18.096C53.9577 21.056 55.6377 22.944 58.0857 22.944C59.7817 22.944 60.8857 22.064 61.4937 20.672C61.5577 20.544 61.6377 20.48 61.7817 20.48L62.6298 20.496C62.8217 20.496 62.9017 20.608 62.8377 20.784C62.2137 22.56 60.5817 24.208 57.9577 24.208C54.7257 24.208 52.5497 21.712 52.5497 18.208C52.5497 14.624 54.8857 12.176 58.0217 12.176Z" fill="#2C2B2B"/>
</svg>
